<?xml version="1.0" standalone="no"?>
<!DOCTYPE svg PUBLIC "-//W3C//DTD SVG 20010904//EN"
 "http://www.w3.org/TR/2001/REC-SVG-20010904/DTD/svg10.dtd">
<svg version="1.0" xmlns="http://www.w3.org/2000/svg"
 width="592.000000pt" height="592.000000pt" viewBox="0 0 592.000000 592.000000"
 preserveAspectRatio="xMidYMid meet">
<metadata>
Created by potrace 1.14, written by Peter Selinger 2001-2017
</metadata>
<g transform="translate(0.000000,592.000000) scale(0.100000,-0.100000)"
fill="#000000" stroke="none">
<path d="M2680 5889 c-1004 -100 -1861 -676 -2333 -1570 -161 -304 -253 -604
-313 -1021 l-6 -38 644 0 644 0 13 63 c33 164 131 397 228 544 176 266 390
456 668 592 148 73 240 106 395 143 84 20 123 22 335 23 264 0 342 -11 540
-77 578 -193 1011 -700 1121 -1313 24 -138 24 -412 0 -550 -47 -263 -153 -509
-309 -721 -74 -102 -278 -299 -387 -376 -176 -124 -395 -219 -623 -270 -90
-20 -129 -23 -337 -23 -256 0 -309 7 -500 67 -129 40 -355 153 -469 235 -315
226 -560 586 -650 955 l-26 108 -643 0 -644 0 6 -37 c38 -266 73 -418 141
-620 259 -767 844 -1404 1590 -1733 137 -60 352 -134 495 -169 435 -106 949
-106 1395 1 1024 245 1845 1033 2135 2048 33 114 71 301 92 450 20 145 17 603
-5 755 -52 352 -131 606 -287 920 -186 376 -461 719 -780 975 -419 335 -927
554 -1455 625 -143 20 -538 28 -675 14z"/>
<path d="M2775 3824 c-276 -62 -502 -243 -620 -498 -18 -39 -31 -74 -29 -78 3
-5 172 -8 376 -8 l370 0 29 -31 c16 -17 38 -60 50 -97 43 -134 18 -328 -50
-401 l-29 -31 -370 0 c-204 0 -373 -3 -376 -8 -2 -4 11 -39 29 -78 120 -261
350 -442 634 -499 111 -23 293 -16 401 15 416 118 690 524 640 947 -14 119
-40 205 -91 303 -113 219 -314 383 -549 451 -101 28 -314 35 -415 13z"/>
</g>
</svg>
