<svg width="28" height="28" viewBox="0 0 28 28" fill="none" xmlns="http://www.w3.org/2000/svg">
<path d="M21.1538 4.00195H6.84615C5.23077 4.00195 4 5.23272 4 6.84811V21.1558C4 22.7712 5.23077 24.002 6.84615 24.002H21.1538C22.7692 24.002 24 22.7712 24 21.1558V6.84811C24 5.23272 22.7692 4.00195 21.1538 4.00195ZM14 20.002C17.3077 20.002 20 17.3866 20 14.2327C20 13.6943 19.9231 13.0789 19.7692 12.6173H21.4615V20.7712C21.4615 21.1558 21.1538 21.5404 20.6923 21.5404H7.30769C6.92308 21.5404 6.53846 21.2327 6.53846 20.7712V12.5404H8.3077C8.15385 13.0789 8.07693 13.6173 8.07693 14.1558C8 17.3866 10.6923 20.002 14 20.002ZM14 17.6943C11.8462 17.6943 10.1538 16.002 10.1538 13.925C10.1538 11.8481 11.8462 10.1558 14 10.1558C16.1538 10.1558 17.8462 11.8481 17.8462 13.925C17.8462 16.0789 16.1538 17.6943 14 17.6943ZM21.3846 9.46349C21.3846 9.92503 21 10.3096 20.5385 10.3096H18.3846C17.9231 10.3096 17.5385 9.92503 17.5385 9.46349V7.38657C17.5385 6.92503 17.9231 6.54041 18.3846 6.54041H20.5385C21 6.54041 21.3846 6.92503 21.3846 7.38657V9.46349Z" fill="white"/>
</svg>
