<svg width="24" height="24" viewBox="0 0 24 24" fill="none" xmlns="http://www.w3.org/2000/svg">
<path d="M15 3H19C19.5304 3 20.0391 3.21071 20.4142 3.58579C20.7893 3.96086 21 4.46957 21 5V19C21 19.5304 20.7893 20.0391 20.4142 20.4142C20.0391 20.7893 19.5304 21 19 21H15" stroke="#EB6A19" stroke-width="1.5" stroke-linecap="round" stroke-linejoin="round"/>
<path d="M10 17L15 12L10 7" stroke="#EB6A19" stroke-width="1.5" stroke-linecap="square" stroke-linejoin="round"/>
<path d="M15 12.75C15.4142 12.75 15.75 12.4142 15.75 12C15.75 11.5858 15.4142 11.25 15 11.25V12.75ZM3 11.25H2.25V12.75H3V11.25ZM15 11.25H3V12.75H15V11.25Z" fill="#EB6A19"/>
</svg>
