<svg width="24" height="25" viewBox="0 0 24 25" fill="none" xmlns="http://www.w3.org/2000/svg">
<circle cx="12" cy="12.5" r="12" fill="#1FAF43"/>
<path d="M16.7561 7.7375C15.5707 6.55625 13.9902 5.9 12.3219 5.9C8.85366 5.9 6.0439 8.7 6.0439 12.1562C6.0439 13.25 6.35122 14.3437 6.87805 15.2625L6 18.5L9.33659 17.625C10.2585 18.1062 11.2683 18.3688 12.3219 18.3688C15.7902 18.3688 18.6 15.5688 18.6 12.1125C18.5561 10.4938 17.9415 8.91875 16.7561 7.7375ZM15.3512 14.3875C15.2195 14.7375 14.6049 15.0875 14.2976 15.1312C14.0341 15.175 13.6829 15.175 13.3317 15.0875C13.1122 15 12.8049 14.9125 12.4537 14.7375C10.8732 14.0813 9.86342 12.5062 9.77561 12.375C9.68781 12.2875 9.11707 11.5437 9.11707 10.7562C9.11707 9.96875 9.51219 9.61875 9.6439 9.44375C9.77561 9.26875 9.95122 9.26875 10.0829 9.26875C10.1707 9.26875 10.3024 9.26875 10.3902 9.26875C10.478 9.26875 10.6098 9.225 10.7415 9.53125C10.8732 9.8375 11.1805 10.625 11.2244 10.6687C11.2683 10.7562 11.2683 10.8438 11.2244 10.9313C11.1805 11.0188 11.1366 11.1062 11.0488 11.1937C10.961 11.2812 10.8732 11.4125 10.8293 11.4562C10.7415 11.5437 10.6537 11.6312 10.7415 11.7625C10.8293 11.9375 11.1366 12.4187 11.6195 12.8562C12.2341 13.3812 12.7171 13.5563 12.8927 13.6438C13.0683 13.7313 13.1561 13.6875 13.2439 13.6C13.3317 13.5125 13.639 13.1625 13.7268 12.9875C13.8146 12.8125 13.9463 12.8563 14.078 12.9C14.2098 12.9437 15 13.3375 15.1317 13.425C15.3073 13.5125 15.3951 13.5562 15.439 13.6C15.4829 13.7312 15.4829 14.0375 15.3512 14.3875Z" fill="white"/>
</svg>
