<svg width="28" height="28" viewBox="0 0 28 28" fill="none" xmlns="http://www.w3.org/2000/svg">
<path d="M27.7399 21.1909C27.7399 21.0745 27.6285 21.0745 27.6285 20.958C27.1829 20.0265 26.1802 18.8622 24.8434 17.5813C24.1749 16.9992 23.8407 16.5334 23.6179 16.3005C23.2837 15.8348 23.2837 15.4855 23.3951 15.0197C23.5065 14.6704 23.9521 14.0882 24.732 13.0402C25.1776 12.458 25.4004 12.1087 25.7346 11.7594C27.4057 9.43065 28.1855 7.91694 27.9627 7.21831L27.8513 7.10188C27.7399 6.98545 27.6285 6.86901 27.4057 6.86901C27.1829 6.75257 26.8487 6.75257 26.5145 6.86901H22.2811C22.1697 6.86901 22.1696 6.86901 21.9468 6.86901C21.8354 6.86901 21.724 6.86901 21.724 6.86901H21.6126H21.5012L21.3898 6.98544C21.2784 7.10188 21.2784 7.10187 21.2784 7.21831C20.8328 8.49913 20.2758 9.54708 19.7187 10.7115C19.3845 11.2937 19.0503 11.8759 18.7161 12.3416C18.3819 12.8074 18.159 13.1567 17.9362 13.3896C17.7134 13.6224 17.4906 13.7389 17.3792 13.9717C17.2678 14.0882 17.045 14.2046 17.045 14.0882C16.9336 14.0882 16.8222 14.0882 16.8222 13.9717C16.7108 13.8553 16.5994 13.7389 16.488 13.6224C16.3766 13.506 16.3766 13.2731 16.2652 13.0402C16.2652 12.8074 16.2652 12.5745 16.2652 12.458C16.2652 12.3416 16.2652 11.9923 16.2652 11.7594C16.2652 11.4101 16.2652 11.1772 16.2652 11.0608C16.2652 10.7115 16.2652 10.2457 16.2652 9.77997C16.2652 9.31422 16.2652 8.96489 16.2652 8.73202C16.2652 8.49914 16.2652 8.14983 16.2652 7.91695C16.2652 7.56763 16.2652 7.33475 16.2652 7.21831C16.2652 7.10187 16.1538 6.869 16.1538 6.75257C16.0424 6.63613 15.9309 6.51969 15.8195 6.40325C15.7081 6.28681 15.4853 6.28681 15.3739 6.17037C14.8169 6.05393 14.1485 5.9375 13.3686 5.9375C11.5862 5.9375 10.3607 6.05394 9.91508 6.28682C9.69227 6.40326 9.46946 6.51969 9.35805 6.75257C9.13524 6.98544 9.13523 7.10188 9.24664 7.10188C9.80367 7.21832 10.2493 7.45119 10.4721 7.8005L10.5835 8.0334C10.6949 8.14983 10.6949 8.3827 10.8063 8.73202C10.9177 9.08133 10.9177 9.43065 10.9177 9.8964C10.9177 10.595 10.9177 11.2937 10.9177 11.7594C10.9177 12.3416 10.8063 12.6909 10.8063 13.0402C10.8063 13.3895 10.6949 13.6224 10.5835 13.7389C10.4721 13.9717 10.4721 14.0882 10.3607 14.0882C10.3607 14.0882 10.3607 14.2046 10.2493 14.2046C10.1379 14.2046 10.0265 14.3211 9.80367 14.3211C9.69226 14.3211 9.46946 14.2046 9.35805 14.0882C9.13524 13.9718 8.91243 13.7389 8.80103 13.506C8.57822 13.2731 8.3554 12.9238 8.13259 12.458C7.90978 11.9923 7.57555 11.5265 7.35274 10.8279L7.12995 10.3622C7.01854 10.1293 6.79573 9.66353 6.57292 9.08133C6.35011 8.49914 6.12729 8.0334 5.90448 7.4512C5.79308 7.21833 5.68169 7.10188 5.57028 6.98544H5.45887C5.45887 6.98544 5.34745 6.86901 5.23604 6.86901C5.12464 6.86901 5.01325 6.75257 4.90184 6.75257H0.891246C0.445624 6.75257 0.222817 6.869 0.111412 6.98544L0 7.10188C0 7.10188 0 7.21832 0 7.33476C0 7.4512 6.79798e-06 7.56763 0.111412 7.8005C0.668438 9.19777 1.33687 10.595 2.0053 11.9923C2.67373 13.2731 3.34217 14.4375 3.78779 15.2526C4.34482 16.0676 4.79043 16.8827 5.34746 17.5813C5.90448 18.28 6.23869 18.7457 6.3501 18.9786C6.57291 19.2115 6.68431 19.3279 6.79571 19.4443L7.12995 19.7937C7.35276 20.0265 7.68697 20.3759 8.13259 20.7252C8.57821 21.0745 9.13523 21.4238 9.69226 21.7731C10.2493 22.1224 10.9177 22.3553 11.5862 22.5882C12.366 22.8211 13.0344 22.9375 13.7029 22.8211H15.3739C15.7081 22.8211 15.931 22.7046 16.1538 22.4718L16.2652 22.3553C16.2652 22.2389 16.3766 22.2389 16.3766 22.1224C16.3766 22.006 16.3766 21.8896 16.3766 21.6567C16.3766 21.1909 16.3766 20.8416 16.488 20.4923C16.5994 20.143 16.5994 19.9101 16.7108 19.6772C16.8222 19.4444 16.9336 19.3279 17.045 19.2115C17.1564 19.095 17.2678 18.9786 17.2678 18.9786H17.3792C17.602 18.8622 17.9363 18.9786 18.1591 19.2115C18.4933 19.4444 18.8275 19.7937 19.0503 20.143C19.2731 20.4923 19.6073 20.8416 20.053 21.3074C20.4986 21.7731 20.8328 22.1224 21.0556 22.2389L21.3898 22.4718C21.6126 22.5882 21.8354 22.7046 22.1697 22.8211C22.5039 22.9375 22.7267 22.9375 22.9495 22.9375L26.7373 22.8211C27.0715 22.8211 27.4057 22.7046 27.6285 22.5882C27.8513 22.4718 27.9627 22.3553 27.9627 22.1224C27.9627 22.006 27.9627 21.7731 27.9627 21.6567C27.7399 21.4238 27.7399 21.3074 27.7399 21.1909Z" fill="white"/>
</svg>
