<svg width="28" height="28" viewBox="0 0 28 28" fill="none" xmlns="http://www.w3.org/2000/svg">
<path d="M26.0781 11.8947C26.0781 11.3492 25.9869 10.7129 25.9869 9.98559C25.8957 9.25832 25.8044 8.53105 25.7132 7.89468C25.5307 7.16741 25.257 6.62196 24.7095 6.16742C24.2533 5.71287 23.6146 5.44014 22.9759 5.34923C20.8774 5.0765 17.7752 4.9856 13.5781 4.9856C9.38106 4.9856 6.18761 5.0765 4.18031 5.34923C3.54162 5.44014 2.90294 5.71287 2.44674 6.16742C1.99053 6.62196 1.62556 7.16741 1.44308 7.89468C1.2606 8.53105 1.16937 9.16741 1.16937 9.98559C1.07813 10.7129 1.07812 11.3492 1.07812 11.8947C1.07812 12.4401 1.07812 13.0765 1.07812 13.9856C1.07812 14.8947 1.07812 15.622 1.07812 16.0765C1.07812 16.622 1.16937 17.2583 1.16937 17.9856C1.26061 18.7129 1.35184 19.4401 1.44308 20.0765C1.62556 20.8038 1.89929 21.3492 2.44674 21.8038C2.90294 22.2583 3.54162 22.531 4.18031 22.622C6.27885 22.8947 9.38106 22.9856 13.5781 22.9856C17.7752 22.9856 20.9686 22.8947 22.9759 22.622C23.6146 22.531 24.2533 22.2583 24.7095 21.8038C25.1657 21.3492 25.5307 20.8038 25.7132 20.0765C25.8956 19.4401 25.9869 18.8038 25.9869 17.9856C26.0781 17.2583 26.0781 16.622 26.0781 16.0765C26.0781 15.531 26.0781 14.8947 26.0781 13.9856C26.0781 13.0765 26.0781 12.3492 26.0781 11.8947ZM18.4139 14.7129L11.2059 19.1674C11.1146 19.2583 10.9321 19.3492 10.7497 19.3492C10.5672 19.3492 10.4759 19.3492 10.2935 19.2583C10.0197 19.0765 9.83726 18.8038 9.83726 18.4401V9.44014C9.83726 9.0765 10.0197 8.80378 10.2935 8.62196C10.5672 8.44014 10.9321 8.44014 11.2059 8.62196L18.4139 13.0765C18.6876 13.2583 18.8701 13.531 18.8701 13.8038C18.8701 14.0765 18.6876 14.531 18.4139 14.7129Z" fill="white"/>
</svg>
